<svg width="374" height="220" viewBox="0 0 374 220" fill="none" xmlns="http://www.w3.org/2000/svg">
<g clip-path="url(#clip0_859_28679)">
<path d="M0.466797 16C0.466797 7.16344 7.63024 0 16.4668 0H357.467C366.303 0 373.467 7.16344 373.467 16V220H0.466797V16Z" fill="white" fill-opacity="0.02"/>
<g opacity="0.4">
<line x1="98.4821" y1="66.2373" x2="138.482" y2="135.519" stroke="#0CFFA7" stroke-width="0.5"/>
<line x1="232.011" y1="81.5194" x2="272.011" y2="150.801" stroke="#0CFFA7" stroke-width="0.5"/>
<line x1="-78.5293" y1="168.146" x2="370.072" y2="-90.8542" stroke="white" stroke-width="0.5"/>
<circle cx="4.73447" cy="120.362" r="9.75" transform="rotate(-30 4.73447 120.362)" fill="#161616" stroke="white" stroke-width="0.5"/>
<circle cx="191.795" cy="12.3623" r="9.75" transform="rotate(-30 191.795 12.3623)" fill="#161616" stroke="white" stroke-width="0.5"/>
<line x1="-118.529" y1="98.8638" x2="330.072" y2="-160.136" stroke="white" stroke-width="0.5"/>
<circle cx="58.2657" cy="-2.9197" r="9.75" transform="rotate(-30 58.2657 -2.9197)" fill="#161616" stroke="white" stroke-width="0.5"/>
<line x1="-38.5293" y1="237.428" x2="410.072" y2="-21.5721" stroke="white" stroke-width="0.5"/>
<circle cx="44.7345" cy="189.644" r="9.75" transform="rotate(-30 44.7345 189.644)" fill="#161616" stroke="white" stroke-width="0.5"/>
<circle cx="325.326" cy="27.6444" r="9.75" transform="rotate(-30 325.326 27.6444)" fill="#161616" stroke="white" stroke-width="0.5"/>
<line x1="1.4707" y1="306.71" x2="450.072" y2="47.7099" stroke="white" stroke-width="0.5"/>
<circle cx="178.266" cy="204.926" r="9.75" transform="rotate(-30 178.266 204.926)" fill="#161616" stroke="white" stroke-width="0.5"/>
<circle cx="365.326" cy="96.9264" r="9.75" transform="rotate(-30 365.326 96.9264)" fill="#161616" stroke="white" stroke-width="0.5"/>
<line x1="41.4707" y1="375.992" x2="490.072" y2="116.992" stroke="white" stroke-width="0.5"/>
<circle cx="311.795" cy="220.208" r="9.75" transform="rotate(-30 311.795 220.208)" fill="#161616" stroke="white" stroke-width="0.5"/>
<rect x="75.4138" y="67.142" width="39.5" height="21.5" rx="10.75" transform="rotate(-30 75.4138 67.142)" fill="#161616" stroke="white" stroke-width="0.5"/>
<path d="M86.6348 73.0768L93.563 69.0768" stroke="white" stroke-width="0.5" stroke-linecap="round"/>
<path d="M88.0977 67.6127L92.0977 74.5409" stroke="white" stroke-width="0.5" stroke-linecap="round"/>
<circle cx="102.455" cy="60.4788" r="1.75" transform="rotate(-30 102.455 60.4788)" fill="#161616" stroke="white" stroke-width="0.5"/>
<circle cx="109.285" cy="62.3088" r="1.75" transform="rotate(-30 109.285 62.3088)" fill="#161616" stroke="white" stroke-width="0.5"/>
<rect x="115.414" y="136.424" width="39.5" height="21.5" rx="10.75" transform="rotate(-30 115.414 136.424)" fill="#161616" stroke="white" stroke-width="0.5"/>
<path d="M126.635 142.359L133.563 138.359" stroke="white" stroke-width="0.5" stroke-linecap="round"/>
<path d="M128.098 136.895L132.098 143.823" stroke="white" stroke-width="0.5" stroke-linecap="round"/>
<circle cx="142.455" cy="129.761" r="1.75" transform="rotate(-30 142.455 129.761)" fill="#161616" stroke="white" stroke-width="0.5"/>
<circle cx="149.285" cy="131.591" r="1.75" transform="rotate(-30 149.285 131.591)" fill="#161616" stroke="white" stroke-width="0.5"/>
<g clip-path="url(#clip1_859_28679)">
<rect x="249.707" y="148.668" width="36" height="26" rx="4" transform="rotate(-30 249.707 148.668)" fill="#161616"/>
<circle cx="266.39" cy="168.455" r="10.1945" transform="rotate(-30 266.39 168.455)" fill="#161616" stroke="white" stroke-width="0.5"/>
<circle cx="258.893" cy="151.342" r="2.75" transform="rotate(-30 258.893 151.342)" fill="#161616" stroke="white" stroke-width="0.5"/>
<circle cx="285.362" cy="161.473" r="18.2974" transform="rotate(-30 285.362 161.473)" fill="#161616" stroke="white" stroke-width="0.5"/>
</g>
<rect x="250.049" y="148.76" width="35.5" height="25.5" rx="3.75" transform="rotate(-30 250.049 148.76)" stroke="white" stroke-width="0.5"/>
<g clip-path="url(#clip2_859_28679)">
<rect x="210" y="80.0001" width="36" height="26" rx="4" transform="rotate(-30 210 80.0001)" fill="#161616"/>
<circle cx="226.683" cy="99.7867" r="10.1945" transform="rotate(-30 226.683 99.7867)" fill="#161616" stroke="white" stroke-width="0.5"/>
<circle cx="219.186" cy="82.6738" r="2.75" transform="rotate(-30 219.186 82.6738)" fill="#161616" stroke="white" stroke-width="0.5"/>
<circle cx="245.655" cy="92.8046" r="18.2974" transform="rotate(-30 245.655 92.8046)" fill="#161616" stroke="white" stroke-width="0.5"/>
</g>
<rect x="210.342" y="80.0916" width="35.5" height="25.5" rx="3.75" transform="rotate(-30 210.342 80.0916)" stroke="white" stroke-width="0.5"/>
</g>
</g>
<defs>
<clipPath id="clip0_859_28679">
<path d="M0.466797 16C0.466797 7.16344 7.63024 0 16.4668 0H357.467C366.303 0 373.467 7.16344 373.467 16V220H0.466797V16Z" fill="white"/>
</clipPath>
<clipPath id="clip1_859_28679">
<rect x="249.707" y="148.668" width="36" height="26" rx="4" transform="rotate(-30 249.707 148.668)" fill="white"/>
</clipPath>
<clipPath id="clip2_859_28679">
<rect x="210" y="80.0001" width="36" height="26" rx="4" transform="rotate(-30 210 80.0001)" fill="white"/>
</clipPath>
</defs>
</svg>
