<svg width="374" height="221" viewBox="0 0 374 221" fill="none" xmlns="http://www.w3.org/2000/svg">
<mask id="mask0_859_28489" style="mask-type:alpha" maskUnits="userSpaceOnUse" x="0" y="0" width="374" height="221">
<path opacity="0.4" d="M0.189453 16.0254C0.189453 7.18883 7.3529 0.0253906 16.1895 0.0253906L357.189 0.0253906C366.026 0.0253906 373.189 7.18883 373.189 16.0254V220.025L0.189453 220.025L0.189453 16.0254Z" fill="white"/>
</mask>
<g mask="url(#mask0_859_28489)">
<g opacity="0.02">
<path d="M0 0L374 0V220L0 220L0 0Z" fill="white"/>
<path d="M0.25 0.25L373.75 0.25V219.75L0.25 219.75L0.25 0.25Z" stroke="white" stroke-opacity="0.2" stroke-width="0.5"/>
</g>
<circle cx="35.2028" cy="6.93414" r="9.61012" transform="rotate(-120 35.2028 6.93414)" stroke="white" stroke-width="0.5"/>
<path d="M-59.918 62.5117L27.1208 12.2599" stroke="white" stroke-width="0.5"/>
<path d="M130.789 -47.593L43.7676 2.64856" stroke="white" stroke-width="0.5"/>
<circle cx="177.056" cy="16.1165" r="9.61012" transform="rotate(-120 177.056 16.1165)" stroke="white" stroke-width="0.5"/>
<path d="M-20.4805 130.825L66.5607 80.5713" stroke="white" stroke-width="0.5"/>
<path d="M83.1816 70.9757L168.99 21.4343" stroke="white" stroke-width="0.5"/>
<path d="M272.696 -38.4408L185.619 11.833" stroke="white" stroke-width="0.5"/>
<line x1="110.198" y1="136.277" x2="86.0701" y2="94.487" stroke="#0CFFD3" stroke-width="0.5"/>
<circle cx="75.2551" cy="75.2532" r="21.8978" transform="rotate(-120 75.2551 75.2532)" fill="#161616" stroke="white" stroke-width="0.5"/>
<circle cx="11.5602" cy="202.751" r="9.61012" transform="rotate(-120 11.5602 202.751)" stroke="white" stroke-width="0.5"/>
<circle cx="114.877" cy="144.358" r="9.61012" transform="rotate(-120 114.877 144.358)" stroke="white" stroke-width="0.5"/>
<circle cx="319.709" cy="26.098" r="9.61012" transform="rotate(-120 319.709 26.098)" stroke="white" stroke-width="0.5"/>
<path d="M-83.5078 258.298L3.50606 208.061" stroke="white" stroke-width="0.5"/>
<path d="M20.3027 198.799L106.154 149.233" stroke="white" stroke-width="0.5"/>
<path d="M122.801 139.621L208.672 90.0435" stroke="white" stroke-width="0.5"/>
<path d="M225.275 80.4584L311.134 30.8878" stroke="white" stroke-width="0.5"/>
<path d="M414.796 -28.9622L327.744 21.2974" stroke="white" stroke-width="0.5"/>
<line x1="250.768" y1="144.259" x2="227.768" y2="104.422" stroke="#0CFFD3" stroke-width="0.5"/>
<circle cx="217.06" cy="85.3724" r="21.8978" transform="rotate(-120 217.06 85.3724)" fill="#161616" stroke="white" stroke-width="0.5"/>
<path d="M210.806 89.1293L218.518 93.3789L205.117 92.2645L210.855 80.1063L210.677 88.9053C210.675 88.9982 210.725 89.0845 210.806 89.1293ZM212.612 87.9376L212.807 78.3647L228.951 78.5039L221 92.5543L212.612 87.9376Z" stroke="white" stroke-width="0.5" stroke-linejoin="round"/>
<circle cx="6.62813" cy="206.865" r="21.8978" transform="rotate(-120 6.62813 206.865)" fill="#161616" stroke="white" stroke-width="0.5"/>
<path d="M0.374465 210.622L8.08613 214.872L-5.3143 213.757L0.422987 201.599L0.245173 210.398C0.243296 210.491 0.29309 210.577 0.374465 210.622ZM2.18012 209.43L2.37577 199.857L18.5197 199.997L10.5681 214.047L2.18012 209.43Z" stroke="white" stroke-width="0.5" stroke-linejoin="round"/>
<circle cx="153.468" cy="211.903" r="9.61012" transform="rotate(-120 153.468 211.903)" stroke="white" stroke-width="0.5"/>
<circle cx="255.951" cy="152.736" r="9.61012" transform="rotate(-120 255.951 152.736)" stroke="white" stroke-width="0.5"/>
<circle cx="358.408" cy="93.5816" r="9.61012" transform="rotate(-120 358.408 93.5816)" stroke="white" stroke-width="0.5"/>
<path d="M58.4023 267.451L145.448 217.195" stroke="white" stroke-width="0.5"/>
<path d="M162.07 207.598L247.893 158.048" stroke="white" stroke-width="0.5"/>
<path d="M264.541 148.435L350.4 98.8649" stroke="white" stroke-width="0.5"/>
<path d="M454.048 39.0243L366.992 89.2861" stroke="white" stroke-width="0.5"/>
<circle cx="295.379" cy="221.055" r="9.61012" transform="rotate(-120 295.379 221.055)" stroke="white" stroke-width="0.5"/>
<path d="M391.018 166.498L303.992 216.743" stroke="white" stroke-width="0.5"/>
<circle cx="295.421" cy="221.1" r="21.8978" transform="rotate(-120 295.421 221.1)" fill="#161616" stroke="white" stroke-width="0.5"/>
<path d="M308.377 216.179L305.817 217.744" stroke="white" stroke-width="0.5" stroke-linecap="round" stroke-linejoin="round"/>
<path d="M306.289 212.766L303.73 214.331" stroke="white" stroke-width="0.5" stroke-linecap="round" stroke-linejoin="round"/>
<path d="M305.555 217.317C307.139 219.909 306.323 223.294 303.731 224.879V224.879C301.14 226.463 297.754 225.647 296.17 223.055L292.258 216.656L301.643 210.918L305.555 217.317Z" stroke="white" stroke-width="0.5"/>
<path d="M296.692 223.908C298.276 226.5 297.46 229.885 294.868 231.47V231.47C292.277 233.054 288.891 232.238 287.307 229.646L282.873 222.394L292.258 216.656L296.692 223.908Z" stroke="white" stroke-width="0.5"/>
<circle cx="153.878" cy="211.915" r="21.8978" transform="rotate(-120 153.878 211.915)" fill="#161616" stroke="white" stroke-width="0.5"/>
<path d="M167.062 205.825L164.503 207.39" stroke="white" stroke-width="0.5" stroke-linecap="round" stroke-linejoin="round"/>
<path d="M145.732 218.866L143.173 220.431" stroke="white" stroke-width="0.5" stroke-linecap="round" stroke-linejoin="round"/>
<path d="M164.975 202.412L162.415 203.977" stroke="white" stroke-width="0.5" stroke-linecap="round" stroke-linejoin="round"/>
<path d="M143.646 215.453L141.087 217.018" stroke="white" stroke-width="0.5" stroke-linecap="round" stroke-linejoin="round"/>
<path d="M164.24 206.963C165.825 209.555 165.009 212.94 162.417 214.525V214.525C159.825 216.109 156.44 215.293 154.856 212.701L150.943 206.302L160.328 200.564L164.24 206.963Z" stroke="white" stroke-width="0.5"/>
<path d="M155.377 213.554C156.962 216.146 156.145 219.531 153.554 221.116V221.116C150.962 222.7 147.577 221.884 145.992 219.292L141.558 212.04L150.943 206.302L155.377 213.554Z" stroke="white" stroke-width="0.5"/>
<circle cx="358.96" cy="93.5105" r="21.8978" transform="rotate(-120 358.96 93.5105)" fill="#161616" stroke="white" stroke-width="0.5"/>
<path d="M358.154 97.0968C358.158 97.1023 358.161 97.1075 358.166 97.1126C359.592 99.3451 361.003 101.208 362.184 102.45C362.775 103.071 363.318 103.548 363.785 103.834C364.018 103.977 364.243 104.08 364.455 104.125C364.668 104.171 364.884 104.16 365.072 104.051C365.261 103.942 365.378 103.76 365.446 103.553C365.5 103.384 365.526 103.187 365.529 102.971C365.574 103.299 365.594 103.592 365.587 103.846C365.572 104.434 365.421 104.725 365.233 104.834C365.045 104.942 364.717 104.928 364.199 104.646C363.697 104.373 363.089 103.886 362.406 103.208C361.043 101.854 359.423 99.7778 357.81 97.2592C357.738 97.1467 357.59 97.1107 357.474 97.1775L348.718 102.233L346.295 98.0373L355.048 92.9836C355.164 92.9168 355.207 92.7709 355.145 92.6522C353.768 89.9897 352.777 87.544 352.285 85.6831C352.038 84.7507 351.92 83.9793 351.935 83.4069C351.95 82.8166 352.101 82.5249 352.289 82.4165C352.477 82.3081 352.805 82.3228 353.324 82.605C353.543 82.7243 353.782 82.8842 354.039 83.0829C353.854 82.981 353.675 82.9072 353.506 82.871C353.292 82.8254 353.076 82.8361 352.887 82.9452C352.698 83.0544 352.58 83.2363 352.513 83.444C352.447 83.6498 352.423 83.897 352.431 84.171C352.446 84.7193 352.587 85.4295 352.831 86.2541C353.319 87.9074 354.235 90.0758 355.466 92.4421C355.625 92.7495 356.079 93.6186 356.768 94.8126C357.634 96.3121 358.064 96.9656 358.154 97.0968ZM359.856 90.12C359.857 90.1171 359.858 90.1142 359.858 90.1113C359.923 90.1324 359.997 90.1267 360.06 90.09L362.858 88.4745C362.978 88.4055 363.019 88.2526 362.95 88.133L359.377 81.9451L363.213 79.7307L373.032 96.7375L369.196 98.9519L365.623 92.7629C365.554 92.6434 365.401 92.6024 365.281 92.6714L362.482 94.2875C362.419 94.324 362.378 94.384 362.363 94.4503C362.359 94.4489 362.355 94.4477 362.351 94.4465C362.286 94.4274 362.215 94.4359 362.156 94.47L359.23 96.1597C359.027 95.8575 358.608 95.21 357.988 94.1359C357.421 93.1549 357.02 92.3791 356.813 91.9662L359.738 90.2772C359.798 90.2431 359.84 90.1863 359.856 90.12Z" stroke="white" stroke-width="0.5" stroke-linejoin="round"/>
<mask id="path-49-inside-1_859_28489" fill="white">
<path fill-rule="evenodd" clip-rule="evenodd" d="M80.2759 81.7901L83.3557 79.9929L83.3621 80.004L83.3918 76.4897L78.1467 73.5251L78.2176 67.5276L75.1601 65.7977L72.072 67.5806L72.0297 73.5979L66.7423 76.6506L66.7196 80.1438L69.7562 81.8709L75.0436 78.8182L80.2759 81.7901ZM88.7081 67.4296L80.4322 62.7517L80.3952 66.2533L85.6329 69.2051L85.5777 75.2298L88.6287 76.9485L88.7081 67.4296ZM64.6224 69.3837L69.8887 66.324L69.9251 62.8249L61.5496 67.6605L61.4846 77.1711L64.5726 75.3882L64.6224 69.3837ZM72.0897 65.0533L75.1634 63.2787L78.2217 65.0102L78.2514 61.4958L75.2004 59.7771L72.1267 61.5517L72.0897 65.0533ZM83.4349 70.4739L80.3839 68.7552L80.3468 72.2568L83.4052 73.9882L83.4349 70.4739ZM69.8473 72.3431L69.8844 68.8415L66.7963 70.6244L66.7737 74.1176L69.8473 72.3431ZM64.5102 81.4003L64.5472 77.8987L61.4736 79.6733L61.4365 83.1749L64.4949 84.9063L67.5686 83.1317L64.5102 81.4003ZM88.6175 79.4505L85.5665 77.7318L85.5295 81.2334L82.4558 83.008L85.5142 84.7395L88.5879 82.9649L88.6175 79.4505ZM83.3141 86.0118L80.2631 84.2931L74.9802 87.324L69.7578 84.3655L66.6697 86.1484L74.9386 90.8474L83.3141 86.0118ZM74.9928 84.8206L71.9562 83.0936L75.0299 81.319L78.0809 83.0377L74.9928 84.8206Z"/>
</mask>
<path d="M83.3557 79.9929L83.7887 79.7429C83.7222 79.6277 83.6125 79.5437 83.484 79.5096C83.3554 79.4755 83.2186 79.494 83.1037 79.561L83.3557 79.9929ZM80.2759 81.7901L80.029 82.2249C80.1839 82.3129 80.374 82.3118 80.5279 82.222L80.2759 81.7901ZM83.3621 80.004L82.9291 80.254C83.0419 80.4493 83.2714 80.545 83.4895 80.4875C83.7076 80.4301 83.8602 80.2338 83.8621 80.0083L83.3621 80.004ZM83.3918 76.4897L83.8918 76.4939C83.8933 76.3121 83.7961 76.1438 83.6379 76.0544L83.3918 76.4897ZM78.1467 73.5251L77.6468 73.5192C77.6446 73.7015 77.7419 73.8706 77.9007 73.9603L78.1467 73.5251ZM78.2176 67.5276L78.7175 67.5335C78.7197 67.3512 78.6224 67.1822 78.4638 67.0924L78.2176 67.5276ZM75.1601 65.7977L75.4063 65.3625C75.2522 65.2753 75.0634 65.2761 74.9101 65.3647L75.1601 65.7977ZM72.072 67.5806L71.822 67.1476C71.6684 67.2362 71.5733 67.3997 71.572 67.577L72.072 67.5806ZM72.0297 73.5979L72.2797 74.0309C72.4333 73.9422 72.5284 73.7787 72.5297 73.6014L72.0297 73.5979ZM66.7423 76.6506L66.4923 76.2175C66.3386 76.3063 66.2434 76.4698 66.2423 76.6473L66.7423 76.6506ZM66.7196 80.1438L66.2196 80.1406C66.2184 80.3216 66.3151 80.489 66.4724 80.5785L66.7196 80.1438ZM69.7562 81.8709L69.509 82.3055C69.6633 82.3932 69.8525 82.3926 70.0062 82.3039L69.7562 81.8709ZM75.0436 78.8182L75.2906 78.3834C75.1363 78.2958 74.9472 78.2965 74.7936 78.3851L75.0436 78.8182ZM80.4322 62.7517L80.6783 62.3164C80.5243 62.2294 80.3358 62.2302 80.1825 62.3185C80.0293 62.4068 79.9341 62.5695 79.9322 62.7464L80.4322 62.7517ZM88.7081 67.4296L89.2081 67.4337C89.2096 67.252 89.1124 67.0837 88.9542 66.9943L88.7081 67.4296ZM80.3952 66.2533L79.8952 66.248C79.8933 66.4304 79.9908 66.5993 80.1497 66.6889L80.3952 66.2533ZM85.6329 69.2051L86.1328 69.2097C86.1345 69.0275 86.037 68.8589 85.8783 68.7695L85.6329 69.2051ZM85.5777 75.2298L85.0777 75.2252C85.0761 75.4073 85.1736 75.576 85.3323 75.6654L85.5777 75.2298ZM88.6287 76.9485L88.3833 77.3841C88.5375 77.4709 88.7261 77.4698 88.8792 77.3812C89.0324 77.2925 89.1272 77.1296 89.1287 76.9526L88.6287 76.9485ZM69.8887 66.324L70.1399 66.7563C70.2923 66.6678 70.3868 66.5055 70.3887 66.3292L69.8887 66.324ZM64.6224 69.3837L64.3712 68.9514C64.2184 69.0401 64.1239 69.2029 64.1224 69.3796L64.6224 69.3837ZM69.9251 62.8249L70.4251 62.8301C70.4269 62.6506 70.3324 62.4838 70.1773 62.3932C70.0223 62.3026 69.8306 62.3021 69.6751 62.3919L69.9251 62.8249ZM61.5496 67.6605L61.2996 67.2275C61.146 67.3162 61.0508 67.4797 61.0496 67.6571L61.5496 67.6605ZM61.4846 77.1711L60.9846 77.1677C60.9834 77.3469 61.0782 77.5131 61.2331 77.6032C61.388 77.6934 61.5794 77.6937 61.7346 77.6041L61.4846 77.1711ZM64.5726 75.3882L64.8226 75.8212C64.9761 75.7326 65.0712 75.5695 65.0726 75.3923L64.5726 75.3882ZM75.1634 63.2787L75.4097 62.8436C75.2555 62.7563 75.0667 62.7571 74.9134 62.8457L75.1634 63.2787ZM72.0897 65.0533L71.5897 65.048C71.5878 65.2275 71.6823 65.3943 71.8374 65.4849C71.9924 65.5756 72.1842 65.5761 72.3397 65.4863L72.0897 65.0533ZM78.2217 65.0102L77.9754 65.4453C78.1295 65.5325 78.3183 65.5317 78.4717 65.4432C78.6251 65.3546 78.7202 65.1915 78.7217 65.0144L78.2217 65.0102ZM78.2514 61.4958L78.7514 61.5C78.7529 61.318 78.6554 61.1495 78.4968 61.0601L78.2514 61.4958ZM75.2004 59.7771L75.4458 59.3414C75.2918 59.2547 75.1035 59.2557 74.9504 59.3441L75.2004 59.7771ZM72.1267 61.5517L71.8767 61.1187C71.7237 61.207 71.6286 61.3696 71.6268 61.5464L72.1267 61.5517ZM80.3839 68.7552L80.6293 68.3195C80.4753 68.2328 80.287 68.2338 80.1339 68.3221C79.9808 68.4105 79.8858 68.5731 79.8839 68.7499L80.3839 68.7552ZM83.4349 70.4739L83.9349 70.4781C83.9364 70.2961 83.8389 70.1276 83.6803 70.0382L83.4349 70.4739ZM80.3468 72.2568L79.8469 72.2515C79.8449 72.4335 79.9421 72.6022 80.1005 72.6919L80.3468 72.2568ZM83.4052 73.9882L83.1589 74.4234C83.313 74.5106 83.5018 74.5098 83.6552 74.4213C83.8086 74.3327 83.9037 74.1696 83.9052 73.9925L83.4052 73.9882ZM69.8844 68.8415L70.3844 68.8468C70.3863 68.6672 70.2917 68.5004 70.1367 68.4098C69.9816 68.3192 69.7899 68.3187 69.6344 68.4084L69.8844 68.8415ZM69.8473 72.3431L70.0973 72.7761C70.2504 72.6877 70.3454 72.5251 70.3473 72.3483L69.8473 72.3431ZM66.7963 70.6244L66.5463 70.1913C66.3926 70.2801 66.2975 70.4436 66.2963 70.6211L66.7963 70.6244ZM66.7737 74.1176L66.2737 74.1144C66.2725 74.2936 66.3673 74.4597 66.5223 74.5498C66.6772 74.64 66.8685 74.6403 67.0237 74.5507L66.7737 74.1176ZM64.5472 77.8987L65.0472 77.904C65.0491 77.7244 64.9546 77.5576 64.7995 77.467C64.6445 77.3764 64.4528 77.3759 64.2972 77.4657L64.5472 77.8987ZM64.5102 81.4003L64.0102 81.395C64.0083 81.577 64.1054 81.7457 64.2638 81.8354L64.5102 81.4003ZM61.4736 79.6733L61.2236 79.2402C61.0705 79.3286 60.9755 79.4912 60.9736 79.668L61.4736 79.6733ZM61.4365 83.1749L60.9365 83.1696C60.9346 83.3516 61.0318 83.5203 61.1902 83.61L61.4365 83.1749ZM64.4949 84.9063L64.2486 85.3414C64.4027 85.4287 64.5915 85.4279 64.7449 85.3394L64.4949 84.9063ZM67.5686 83.1317L67.8186 83.5648C67.9739 83.4751 68.0693 83.309 68.0686 83.1296C68.0678 82.9503 67.971 82.785 67.8149 82.6966L67.5686 83.1317ZM85.5665 77.7318L85.8119 77.2962C85.6579 77.2094 85.4696 77.2104 85.3165 77.2988C85.1635 77.3872 85.0684 77.5498 85.0666 77.7265L85.5665 77.7318ZM88.6175 79.4505L89.1175 79.4547C89.1191 79.2727 89.0215 79.1042 88.8629 79.0149L88.6175 79.4505ZM85.5295 81.2334L85.7795 81.6664C85.9325 81.5781 86.0276 81.4154 86.0294 81.2387L85.5295 81.2334ZM82.4558 83.008L82.2058 82.575C82.0504 82.6647 81.955 82.8307 81.9558 83.0101C81.9566 83.1895 82.0534 83.3547 82.2095 83.4431L82.4558 83.008ZM85.5142 84.7395L85.2678 85.1746C85.422 85.2619 85.6108 85.2611 85.7642 85.1725L85.5142 84.7395ZM88.5879 82.9649L88.8379 83.3979C88.9913 83.3094 89.0863 83.1462 89.0878 82.9691L88.5879 82.9649ZM80.2631 84.2931L80.5085 83.8575C80.355 83.771 80.1672 83.7717 80.0143 83.8594L80.2631 84.2931ZM83.3141 86.0118L83.5641 86.4448C83.7197 86.355 83.8151 86.1887 83.8141 86.0092C83.8132 85.8296 83.716 85.6643 83.5595 85.5762L83.3141 86.0118ZM74.9802 87.324L74.7337 87.7591C74.8875 87.8462 75.0757 87.8457 75.229 87.7577L74.9802 87.324ZM69.7578 84.3655L70.0042 83.9305C69.8501 83.8432 69.6612 83.8439 69.5078 83.9325L69.7578 84.3655ZM66.6697 86.1484L66.4197 85.7154C66.2645 85.805 66.1691 85.9709 66.1697 86.1501C66.1703 86.3294 66.2669 86.4946 66.4227 86.5831L66.6697 86.1484ZM74.9386 90.8474L74.6916 91.2821C74.8459 91.3698 75.035 91.3691 75.1886 91.2804L74.9386 90.8474ZM71.9562 83.0936L71.7062 82.6606C71.551 82.7502 71.4556 82.916 71.4562 83.0952C71.4568 83.2744 71.5533 83.4396 71.709 83.5282L71.9562 83.0936ZM74.9928 84.8206L74.7457 85.2552C74.8999 85.3429 75.0891 85.3423 75.2428 85.2536L74.9928 84.8206ZM75.0299 81.319L75.2753 80.8833C75.1213 80.7966 74.933 80.7976 74.7799 80.886L75.0299 81.319ZM78.0809 83.0377L78.3309 83.4707C78.4864 83.3809 78.5818 83.2146 78.5809 83.035C78.5799 82.8555 78.4828 82.6902 78.3263 82.602L78.0809 83.0377ZM83.1037 79.561L80.0239 81.3583L80.5279 82.222L83.6077 80.4247L83.1037 79.561ZM83.7952 79.754L83.7887 79.7429L82.9227 80.2429L82.9291 80.254L83.7952 79.754ZM82.8918 76.4854L82.8622 79.9998L83.8621 80.0083L83.8918 76.4939L82.8918 76.4854ZM77.9007 73.9603L83.1458 76.9249L83.6379 76.0544L78.3928 73.0898L77.9007 73.9603ZM77.7176 67.5217L77.6468 73.5192L78.6467 73.531L78.7175 67.5335L77.7176 67.5217ZM74.9139 66.2328L77.9713 67.9627L78.4638 67.0924L75.4063 65.3625L74.9139 66.2328ZM72.322 68.0136L75.4101 66.2307L74.9101 65.3647L71.822 67.1476L72.322 68.0136ZM72.5297 73.6014L72.572 67.5841L71.572 67.577L71.5297 73.5943L72.5297 73.6014ZM66.9923 77.0836L72.2797 74.0309L71.7797 73.1648L66.4923 76.2175L66.9923 77.0836ZM67.2196 80.1471L67.2422 76.6538L66.2423 76.6473L66.2196 80.1406L67.2196 80.1471ZM70.0034 81.4362L66.9668 79.7092L66.4724 80.5785L69.509 82.3055L70.0034 81.4362ZM74.7936 78.3851L69.5062 81.4378L70.0062 82.3039L75.2936 79.2512L74.7936 78.3851ZM80.5229 81.3554L75.2906 78.3834L74.7967 79.2529L80.029 82.2249L80.5229 81.3554ZM80.1862 63.187L88.4621 67.8648L88.9542 66.9943L80.6783 62.3164L80.1862 63.187ZM80.8951 66.2586L80.9322 62.757L79.9322 62.7464L79.8952 66.248L80.8951 66.2586ZM85.8783 68.7695L80.6406 65.8177L80.1497 66.6889L85.3874 69.6407L85.8783 68.7695ZM86.0777 75.2343L86.1328 69.2097L85.1329 69.2005L85.0777 75.2252L86.0777 75.2343ZM88.8741 76.5128L85.8231 74.7941L85.3323 75.6654L88.3833 77.3841L88.8741 76.5128ZM88.2082 67.4254L88.1287 76.9443L89.1287 76.9526L89.2081 67.4337L88.2082 67.4254ZM69.6375 65.8917L64.3712 68.9514L64.8736 69.816L70.1399 66.7563L69.6375 65.8917ZM69.4251 62.8197L69.3887 66.3188L70.3887 66.3292L70.4251 62.8301L69.4251 62.8197ZM61.7996 68.0935L70.1751 63.2579L69.6751 62.3919L61.2996 67.2275L61.7996 68.0935ZM61.9846 77.1745L62.0496 67.6639L61.0496 67.6571L60.9846 77.1677L61.9846 77.1745ZM64.3226 74.9552L61.2346 76.7381L61.7346 77.6041L64.8226 75.8212L64.3226 74.9552ZM64.1224 69.3796L64.0727 75.3841L65.0726 75.3923L65.1224 69.3878L64.1224 69.3796ZM74.9134 62.8457L71.8397 64.6203L72.3397 65.4863L75.4134 63.7117L74.9134 62.8457ZM78.4681 64.5751L75.4097 62.8436L74.917 63.7138L77.9754 65.4453L78.4681 64.5751ZM77.7514 61.4916L77.7218 65.0059L78.7217 65.0144L78.7514 61.5L77.7514 61.4916ZM74.955 60.2127L78.006 61.9314L78.4968 61.0601L75.4458 59.3414L74.955 60.2127ZM72.3767 61.9847L75.4504 60.2101L74.9504 59.3441L71.8767 61.1187L72.3767 61.9847ZM72.5896 65.0586L72.6267 61.557L71.6268 61.5464L71.5897 65.048L72.5896 65.0586ZM80.1385 69.1908L83.1895 70.9095L83.6803 70.0382L80.6293 68.3195L80.1385 69.1908ZM80.8468 72.262L80.8839 68.7605L79.8839 68.7499L79.8469 72.2515L80.8468 72.262ZM83.6516 73.5531L80.5932 71.8216L80.1005 72.6919L83.1589 74.4234L83.6516 73.5531ZM82.9349 70.4696L82.9052 73.984L83.9052 73.9925L83.9349 70.4781L82.9349 70.4696ZM69.3844 68.8362L69.3474 72.3378L70.3473 72.3483L70.3844 68.8468L69.3844 68.8362ZM67.0463 71.0574L70.1344 69.2745L69.6344 68.4084L66.5463 70.1913L67.0463 71.0574ZM67.2736 74.1209L67.2963 70.6276L66.2963 70.6211L66.2737 74.1144L67.2736 74.1209ZM69.5973 71.91L66.5237 73.6846L67.0237 74.5507L70.0973 72.7761L69.5973 71.91ZM64.0473 77.8934L64.0102 81.395L65.0102 81.4056L65.0472 77.904L64.0473 77.8934ZM61.7236 80.1063L64.7972 78.3317L64.2972 77.4657L61.2236 79.2402L61.7236 80.1063ZM61.9365 83.1801L61.9735 79.6785L60.9736 79.668L60.9365 83.1696L61.9365 83.1801ZM64.7412 84.4712L61.6828 82.7397L61.1902 83.61L64.2486 85.3414L64.7412 84.4712ZM67.3186 82.6987L64.2449 84.4733L64.7449 85.3394L67.8186 83.5648L67.3186 82.6987ZM64.2638 81.8354L67.3222 83.5669L67.8149 82.6966L64.7565 80.9652L64.2638 81.8354ZM85.3211 78.1675L88.3721 79.8862L88.8629 79.0149L85.8119 77.2962L85.3211 78.1675ZM86.0294 81.2387L86.0665 77.7371L85.0666 77.7265L85.0295 81.2281L86.0294 81.2387ZM82.7058 83.441L85.7795 81.6664L85.2795 80.8004L82.2058 82.575L82.7058 83.441ZM85.7605 84.3044L82.7021 82.5729L82.2095 83.4431L85.2678 85.1746L85.7605 84.3044ZM88.3379 82.5319L85.2642 84.3065L85.7642 85.1725L88.8379 83.3979L88.3379 82.5319ZM88.1176 79.4463L88.0879 82.9607L89.0878 82.9691L89.1175 79.4547L88.1176 79.4463ZM80.0177 84.7287L83.0687 86.4475L83.5595 85.5762L80.5085 83.8575L80.0177 84.7287ZM75.229 87.7577L80.512 84.7268L80.0143 83.8594L74.7314 86.8904L75.229 87.7577ZM69.5113 84.8006L74.7337 87.7591L75.2266 86.889L70.0042 83.9305L69.5113 84.8006ZM66.9197 86.5814L70.0078 84.7985L69.5078 83.9325L66.4197 85.7154L66.9197 86.5814ZM75.1857 90.4127L66.9168 85.7137L66.4227 86.5831L74.6916 91.2821L75.1857 90.4127ZM83.0641 85.5788L74.6886 90.4144L75.1886 91.2804L83.5641 86.4448L83.0641 85.5788ZM71.709 83.5282L74.7457 85.2552L75.24 84.3859L72.2034 82.6589L71.709 83.5282ZM74.7799 80.886L71.7062 82.6606L72.2062 83.5266L75.2799 81.752L74.7799 80.886ZM78.3263 82.602L75.2753 80.8833L74.7845 81.7546L77.8355 83.4733L78.3263 82.602ZM75.2428 85.2536L78.3309 83.4707L77.8309 82.6047L74.7428 84.3876L75.2428 85.2536Z" fill="white" mask="url(#path-49-inside-1_859_28489)"/>
</g>
</svg>
