<svg width="374" height="220" viewBox="0 0 374 220" fill="none" xmlns="http://www.w3.org/2000/svg">
<mask id="mask0_859_28302" style="mask-type:alpha" maskUnits="userSpaceOnUse" x="0" y="0" width="374" height="220">
<path opacity="0.4" d="M0.0898438 16C0.0898438 7.16344 7.25329 0 16.0898 0L357.09 0C365.926 0 373.09 7.16344 373.09 16V204C373.09 212.837 365.926 220 357.09 220L0.0898438 220L0.0898438 16Z" fill="white"/>
</mask>
<g mask="url(#mask0_859_28302)">
<g opacity="0.02">
<path d="M0 0L374 0V220L0 220L0 0Z" fill="white"/>
<path d="M0.25 0.25L373.75 0.25V219.75L0.25 219.75L0.25 0.25Z" stroke="white" stroke-opacity="0.2" stroke-width="0.5"/>
</g>
<circle cx="36.654" cy="6.86749" r="9.61012" transform="rotate(-120 36.654 6.86749)" stroke="white" stroke-width="0.5"/>
<path d="M-59.6581 63.1333L28.517 12.2252" stroke="white" stroke-width="0.5"/>
<path d="M131.047 -46.9716L45.1855 2.60071" stroke="white" stroke-width="0.5"/>
<circle cx="178.148" cy="18.5099" r="9.61012" transform="rotate(-120 178.148 18.5099)" stroke="white" stroke-width="0.5"/>
<path d="M-19.4766 132.609L67.5647 82.3554" stroke="white" stroke-width="0.5"/>
<path d="M84.1855 72.7598L169.994 23.2184" stroke="white" stroke-width="0.5"/>
<path d="M273.702 -36.6568L186.625 13.6171" stroke="white" stroke-width="0.5"/>
<line x1="110.744" y1="135.421" x2="81.1641" y2="84.1863" stroke="#0CFFD3" stroke-width="0.5"/>
<path d="M63.959 83.8851L70.66 95.4916C70.66 95.4916 74.0105 101.295 87.0678 93.7562C100.125 86.2176 96.7745 80.4144 96.7745 80.4144L90.0735 68.8079" fill="#161616"/>
<path d="M63.959 83.8851L70.66 95.4916C70.66 95.4916 74.0105 101.295 87.0678 93.7562C100.125 86.2176 96.7745 80.4144 96.7745 80.4144L90.0735 68.8079" stroke="white" stroke-width="0.5"/>
<path d="M57.6777 73.0057L63.9599 83.8868C63.9599 83.8868 67.101 89.3273 80.1583 81.7887C93.2156 74.2501 90.0745 68.8096 90.0745 68.8096L83.7923 57.9285" fill="#161616"/>
<path d="M57.6777 73.0057L63.9599 83.8868C63.9599 83.8868 67.101 89.3273 80.1583 81.7887C93.2156 74.2501 90.0745 68.8096 90.0745 68.8096L83.7923 57.9285" stroke="white" stroke-width="0.5"/>
<path d="M66.9655 58.9381C80.0228 51.3994 83.478 57.384 83.478 57.384C83.478 57.384 86.9332 63.3686 73.8759 70.9072C60.8186 78.4459 57.3634 72.4613 57.3634 72.4613C57.3634 72.4613 53.9082 66.4767 66.9655 58.9381Z" fill="#161616" stroke="white" stroke-width="0.5"/>
<circle cx="11.82" cy="203.373" r="9.61012" transform="rotate(-120 11.82 203.373)" stroke="white" stroke-width="0.5"/>
<circle cx="115.791" cy="143.939" r="9.61012" transform="rotate(-120 115.791 143.939)" stroke="white" stroke-width="0.5"/>
<circle cx="216.759" cy="85.0511" r="9.61012" transform="rotate(-120 216.759 85.0511)" stroke="white" stroke-width="0.5"/>
<circle cx="319.486" cy="26.3356" r="9.61012" transform="rotate(-120 319.486 26.3356)" stroke="white" stroke-width="0.5"/>
<path d="M-83.248 258.92L3.76583 208.682" stroke="white" stroke-width="0.5"/>
<path d="M20.3439 199.045L107.453 148.753" stroke="white" stroke-width="0.5"/>
<path d="M124.139 139.118L208.713 90.2892" stroke="white" stroke-width="0.5"/>
<path d="M225.316 80.7032L311.175 31.1327" stroke="white" stroke-width="0.5"/>
<line x1="251.563" y1="146.168" x2="221.982" y2="94.9336" stroke="#0CFFD3" stroke-width="0.5"/>
<path d="M203.877 93.2273L210.578 104.834C210.578 104.834 213.928 110.637 226.986 103.098C240.043 95.5598 236.693 89.7565 236.693 89.7565L229.992 78.15" fill="#161616"/>
<path d="M203.877 93.2273L210.578 104.834C210.578 104.834 213.928 110.637 226.986 103.098C240.043 95.5598 236.693 89.7565 236.693 89.7565L229.992 78.15" stroke="white" stroke-width="0.5"/>
<path d="M197.596 82.347L203.878 93.2281C203.878 93.2281 207.019 98.6686 220.076 91.13C233.134 83.5914 229.992 78.1509 229.992 78.1509L223.71 67.2698" fill="#161616"/>
<path d="M197.596 82.347L203.878 93.2281C203.878 93.2281 207.019 98.6686 220.076 91.13C233.134 83.5914 229.992 78.1509 229.992 78.1509L223.71 67.2698" stroke="white" stroke-width="0.5"/>
<path d="M206.883 68.2799C219.941 60.7412 223.396 66.7258 223.396 66.7258C223.396 66.7258 226.851 72.7104 213.794 80.249C200.737 87.7877 197.281 81.8031 197.281 81.8031C197.281 81.8031 193.826 75.8185 206.883 68.2799Z" fill="#161616" stroke="white" stroke-width="0.5"/>
<path d="M-4.74805 213.677L1.95295 225.284C1.95295 225.284 5.30345 231.087 18.3607 223.548C31.418 216.01 28.0675 210.206 28.0675 210.206L21.3665 198.6" fill="#161616"/>
<path d="M-4.74805 213.677L1.95295 225.284C1.95295 225.284 5.30345 231.087 18.3607 223.548C31.418 216.01 28.0675 210.206 28.0675 210.206L21.3665 198.6" stroke="white" stroke-width="0.5"/>
<path d="M-11.0293 202.797L-4.74711 213.678C-4.74711 213.678 -1.60602 219.119 11.4513 211.58C24.5085 204.041 21.3675 198.601 21.3675 198.601L15.0853 187.72" fill="#161616"/>
<path d="M-11.0293 202.797L-4.74711 213.678C-4.74711 213.678 -1.60602 219.119 11.4513 211.58C24.5085 204.041 21.3675 198.601 21.3675 198.601L15.0853 187.72" stroke="white" stroke-width="0.5"/>
<path d="M-1.74155 188.73C11.3157 181.191 14.7709 187.176 14.7709 187.176C14.7709 187.176 18.2261 193.161 5.16886 200.699C-7.88842 208.238 -11.3436 202.253 -11.3436 202.253C-11.3436 202.253 -14.7988 196.269 -1.74155 188.73Z" fill="#161616" stroke="white" stroke-width="0.5"/>
<path d="M414.839 -28.7165L327.787 21.5431" stroke="white" stroke-width="0.5"/>
<circle cx="153.728" cy="212.524" r="9.61012" transform="rotate(-120 153.728 212.524)" stroke="white" stroke-width="0.5"/>
<circle cx="256.576" cy="154.351" r="9.61012" transform="rotate(-120 256.576 154.351)" stroke="white" stroke-width="0.5"/>
<circle cx="359.189" cy="95.1066" r="9.61012" transform="rotate(-120 359.189 95.1066)" stroke="white" stroke-width="0.5"/>
<path d="M58.6602 268.072L145.705 217.816" stroke="white" stroke-width="0.5"/>
<path d="M162.564 208.628L247.733 159.588" stroke="white" stroke-width="0.5"/>
<path d="M264.335 150.022L350.895 99.8951" stroke="white" stroke-width="0.5"/>
<path d="M454.542 40.0546L367.486 90.3164" stroke="white" stroke-width="0.5"/>
<path d="M142.232 219.459L148.933 231.066C148.933 231.066 152.284 236.869 165.341 229.331C178.398 221.792 175.048 215.989 175.048 215.989L168.347 204.382" fill="#161616"/>
<path d="M142.232 219.459L148.933 231.066C148.933 231.066 152.284 236.869 165.341 229.331C178.398 221.792 175.048 215.989 175.048 215.989L168.347 204.382" stroke="white" stroke-width="0.5"/>
<path d="M135.951 208.579L142.233 219.46C142.233 219.46 145.374 224.901 158.432 217.362C171.489 209.824 168.348 204.383 168.348 204.383L162.066 193.502" fill="#161616"/>
<path d="M135.951 208.579L142.233 219.46C142.233 219.46 145.374 224.901 158.432 217.362C171.489 209.824 168.348 204.383 168.348 204.383L162.066 193.502" stroke="white" stroke-width="0.5"/>
<path d="M145.239 194.512C158.296 186.974 161.751 192.958 161.751 192.958C161.751 192.958 165.207 198.943 152.149 206.481C139.092 214.02 135.637 208.035 135.637 208.035C135.637 208.035 132.182 202.051 145.239 194.512Z" fill="#161616" stroke="white" stroke-width="0.5"/>
<path d="M345.738 101.965L352.439 113.572C352.439 113.572 355.79 119.375 368.847 111.836C381.904 104.298 378.554 98.4946 378.554 98.4946L371.853 86.8881" fill="#161616"/>
<path d="M345.738 101.965L352.439 113.572C352.439 113.572 355.79 119.375 368.847 111.836C381.904 104.298 378.554 98.4946 378.554 98.4946L371.853 86.8881" stroke="white" stroke-width="0.5"/>
<path d="M339.457 91.0852L345.739 101.966C345.739 101.966 348.88 107.407 361.938 99.8682C374.995 92.3296 371.854 86.889 371.854 86.889L365.572 76.008" fill="#161616"/>
<path d="M339.457 91.0852L345.739 101.966C345.739 101.966 348.88 107.407 361.938 99.8682C374.995 92.3296 371.854 86.889 371.854 86.889L365.572 76.008" stroke="white" stroke-width="0.5"/>
<path d="M348.745 77.0181C361.802 69.4795 365.257 75.4641 365.257 75.4641C365.257 75.4641 368.712 81.4487 355.655 88.9873C342.598 96.5259 339.143 90.5413 339.143 90.5413C339.143 90.5413 335.688 84.5568 348.745 77.0181Z" fill="#161616" stroke="white" stroke-width="0.5"/>
<circle cx="294.83" cy="222.144" r="9.61012" transform="rotate(-120 294.83 222.144)" stroke="white" stroke-width="0.5"/>
<path d="M391.362 167.262L304.336 217.506" stroke="white" stroke-width="0.5"/>
<path d="M282.455 229.328L289.156 240.935C289.156 240.935 292.507 246.738 305.564 239.199C318.621 231.661 315.271 225.858 315.271 225.858L308.57 214.251" fill="#161616"/>
<path d="M282.455 229.328L289.156 240.935C289.156 240.935 292.507 246.738 305.564 239.199C318.621 231.661 315.271 225.858 315.271 225.858L308.57 214.251" stroke="white" stroke-width="0.5"/>
<path d="M276.174 218.448L282.456 229.329C282.456 229.329 285.597 234.77 298.654 227.231C311.712 219.693 308.571 214.252 308.571 214.252L302.288 203.371" fill="#161616"/>
<path d="M276.174 218.448L282.456 229.329C282.456 229.329 285.597 234.77 298.654 227.231C311.712 219.693 308.571 214.252 308.571 214.252L302.288 203.371" stroke="white" stroke-width="0.5"/>
<path d="M285.462 204.381C298.519 196.843 301.974 202.827 301.974 202.827C301.974 202.827 305.429 208.812 292.372 216.35C279.315 223.889 275.859 217.904 275.859 217.904C275.859 217.904 272.404 211.92 285.462 204.381Z" fill="#161616" stroke="white" stroke-width="0.5"/>
</g>
</svg>
