<svg width="11" height="11" viewBox="0 0 11 11" fill="none" xmlns="http://www.w3.org/2000/svg">
<path d="M10.1538 3.08055H8.29865C8.31928 3.0624 8.34043 3.04481 8.36053 3.02556C8.52114 2.87716 8.65059 2.6959 8.74077 2.49311C8.83094 2.29032 8.87992 2.07036 8.88462 1.84699C8.89156 1.60263 8.85041 1.35937 8.76368 1.13214C8.67696 0.904917 8.54648 0.698524 8.38028 0.525632C8.21408 0.352741 8.01565 0.216999 7.79717 0.126742C7.5787 0.036485 7.34479 -0.00638373 7.10981 0.000767824C6.89492 0.00558101 6.68331 0.0564706 6.4882 0.150251C6.2931 0.244032 6.11872 0.378684 5.97596 0.54578C5.77843 0.783855 5.61784 1.05254 5.5 1.34212C5.38216 1.05254 5.22157 0.783855 5.02404 0.54578C4.88128 0.378684 4.7069 0.244032 4.5118 0.150251C4.31669 0.0564706 4.10508 0.00558101 3.89019 0.000767824C3.65521 -0.00638373 3.4213 0.036485 3.20283 0.126742C2.98435 0.216999 2.78592 0.352741 2.61972 0.525632C2.45351 0.698524 2.32304 0.904917 2.23632 1.13214C2.14959 1.35937 2.10844 1.60263 2.11538 1.84699C2.12009 2.07036 2.16906 2.29032 2.25923 2.49311C2.34941 2.6959 2.47886 2.87716 2.63947 3.02556C2.65957 3.04371 2.68072 3.0613 2.70135 3.08055H0.846154C0.62174 3.08055 0.406517 3.17326 0.247833 3.33828C0.0891481 3.5033 0 3.72712 0 3.96049V5.72037C0 5.95374 0.0891481 6.17756 0.247833 6.34258C0.406517 6.5076 0.62174 6.60031 0.846154 6.60031V10.1201C0.846154 10.3534 0.935302 10.5773 1.09399 10.7423C1.25267 10.9073 1.46789 11 1.69231 11H9.30769C9.53211 11 9.74733 10.9073 9.90601 10.7423C10.0647 10.5773 10.1538 10.3534 10.1538 10.1201V6.60031C10.3783 6.60031 10.5935 6.5076 10.7522 6.34258C10.9109 6.17756 11 5.95374 11 5.72037V3.96049C11 3.72712 10.9109 3.5033 10.7522 3.33828C10.5935 3.17326 10.3783 3.08055 10.1538 3.08055ZM6.61058 1.12874C6.67757 1.05181 6.75912 0.990115 6.85013 0.947527C6.94114 0.904938 7.03963 0.882376 7.13942 0.881256H7.16534C7.2823 0.882017 7.39794 0.907047 7.50548 0.95488C7.61303 1.00271 7.71031 1.07239 7.79162 1.15982C7.87294 1.24725 7.93666 1.35068 7.97905 1.46405C8.02143 1.57742 8.04163 1.69845 8.03846 1.82004C8.03738 1.92382 8.01569 2.02624 7.97474 2.12088C7.93378 2.21553 7.87446 2.30034 7.80048 2.37C7.29861 2.83197 6.46567 2.99476 5.94952 3.05195C6.01298 2.46955 6.1875 1.62315 6.61058 1.12874ZM3.2212 1.14854C3.38511 0.978099 3.6071 0.881845 3.83889 0.880706H3.86481C3.9646 0.881826 4.06309 0.904388 4.1541 0.946977C4.24511 0.989565 4.32667 1.05126 4.39365 1.12819C4.83736 1.64955 4.99389 2.51409 5.04889 3.04865C4.53486 2.99366 3.70351 2.82867 3.20216 2.36725C3.12819 2.29759 3.06886 2.21278 3.02791 2.11813C2.98695 2.02349 2.96526 1.92107 2.96418 1.81729C2.9609 1.69368 2.98181 1.57066 3.02562 1.4557C3.06944 1.34075 3.13526 1.23624 3.21909 1.14854H3.2212ZM0.846154 3.96049H5.07692V5.72037H0.846154V3.96049ZM1.69231 6.60031H5.07692V10.1201H1.69231V6.60031ZM9.30769 10.1201H5.92308V6.60031H9.30769V10.1201ZM10.1538 5.72037H5.92308V3.96049H10.1538V5.72037Z" fill="#4F54CF"/>
</svg>
