<svg width="244" height="50" viewBox="0 0 244 50" fill="none" xmlns="http://www.w3.org/2000/svg">
<g filter="url(#filter0_d_1429_11757)">
<path fill-rule="evenodd" clip-rule="evenodd" d="M217 27C217 79.4671 174.467 122 122 122C69.533 122 27 79.4671 27 27C27 -25.467 69.533 -68 122 -68C174.467 -68 217 -25.467 217 27ZM122 114.832C170.509 114.832 209.832 75.5086 209.832 27C209.832 -21.5085 170.509 -60.8325 122 -60.8325C73.4915 -60.8325 34.1675 -21.5085 34.1675 27C34.1675 75.5086 73.4915 114.832 122 114.832ZM122 120.967C173.897 120.967 215.967 78.8968 215.967 27C215.967 -24.8968 173.897 -66.9674 122 -66.9674C70.1032 -66.9674 28.0326 -24.8968 28.0326 27C28.0326 78.8968 70.1032 120.967 122 120.967ZM210.865 27C210.865 76.0788 171.079 115.865 122 115.865C72.9212 115.865 33.1349 76.0788 33.1349 27C33.1349 -22.0788 72.9212 -61.8651 122 -61.8651C171.079 -61.8651 210.865 -22.0788 210.865 27Z" fill="white"/>
</g>
<g filter="url(#filter1_d_1429_11757)">
<g filter="url(#filter2_d_1429_11757)">
<path d="M143.246 71.8288C167.937 60.1246 178.466 30.6201 166.762 5.92852C155.058 -18.7631 125.553 -29.2915 100.861 -17.5874C76.1699 -5.88325 65.6415 23.6213 77.3456 48.3129C89.0497 73.0045 118.554 83.5329 143.246 71.8288ZM171.493 3.68574C184.436 30.9904 172.793 63.6175 145.489 76.5602C118.184 89.503 85.5569 77.8604 72.6141 50.5557C59.6713 23.251 71.314 -9.37606 98.6187 -22.3188C125.923 -35.2616 158.55 -23.619 171.493 3.68574Z" fill="white" stroke="white"/>
<path d="M148.166 26.4678C149.892 30.1085 150.011 33.8502 148.524 37.6928C147.061 41.4691 143.913 44.8328 139.08 47.784L142.66 55.3352L137.121 57.9604L133.574 50.4767C130.135 51.8314 126.696 52.7187 123.255 53.1385C119.815 53.5584 116.854 53.4204 114.374 52.7246L114.185 44.4744C116.49 45.0331 119.06 45.2188 121.894 45.0315C124.706 44.7992 127.449 44.1871 130.122 43.1953L123.731 29.7111C120.171 30.4624 117.098 30.9009 114.511 31.0264C111.947 31.0857 109.529 30.5803 107.257 29.5104C104.964 28.3955 103.125 26.3773 101.741 23.4557C100.015 19.815 99.873 16.084 101.315 12.2627C102.757 8.44146 105.883 5.08838 110.692 2.20347L107.08 -5.41507L112.619 -8.04034L116.166 -0.556639C118.752 -1.61704 121.408 -2.35327 124.135 -2.76533C126.908 -3.19873 129.471 -3.25799 131.826 -2.94311L132.285 5.17902C127.926 4.82346 123.703 5.33872 119.618 6.7248L126.073 20.3438C129.677 19.5711 132.751 19.1327 135.293 19.0285C137.88 18.903 140.321 19.3976 142.614 20.5125C144.931 21.5611 146.782 23.5462 148.166 26.4678ZM110.262 18.9212C110.965 20.4044 112.115 21.3181 113.711 21.6621C115.308 22.0061 117.359 21.9698 119.864 21.5532L114.175 9.55233C112.049 11.0004 110.679 12.5306 110.065 14.143C109.45 15.7553 109.516 17.348 110.262 18.9212ZM135.597 40.4352C137.813 38.9444 139.239 37.4153 139.874 35.8479C140.555 34.2592 140.533 32.7007 139.809 31.1725C139.084 29.6443 137.901 28.7189 136.259 28.3962C134.596 28.0286 132.49 28.0638 129.94 28.5017L135.597 40.4352Z" fill="white"/>
</g>
</g>
<g filter="url(#filter3_d_1429_11757)">
<circle cx="122" cy="27" r="71.5" stroke="white" stroke-width="5" shape-rendering="crispEdges"/>
</g>
<defs>
<filter id="filter0_d_1429_11757" x="0" y="-95" width="244" height="244" filterUnits="userSpaceOnUse" color-interpolation-filters="sRGB">
<feFlood flood-opacity="0" result="BackgroundImageFix"/>
<feColorMatrix in="SourceAlpha" type="matrix" values="0 0 0 0 0 0 0 0 0 0 0 0 0 0 0 0 0 0 127 0" result="hardAlpha"/>
<feOffset/>
<feGaussianBlur stdDeviation="13.5"/>
<feComposite in2="hardAlpha" operator="out"/>
<feColorMatrix type="matrix" values="0 0 0 0 0.708333 0 0 0 0 0.7225 0 0 0 0 0.85 0 0 0 0.25 0"/>
<feBlend mode="normal" in2="BackgroundImageFix" result="effect1_dropShadow_1429_11757"/>
<feBlend mode="normal" in="SourceGraphic" in2="effect1_dropShadow_1429_11757" result="shape"/>
</filter>
<filter id="filter1_d_1429_11757" x="34.8281" y="-60.1048" width="174.451" height="174.451" filterUnits="userSpaceOnUse" color-interpolation-filters="sRGB">
<feFlood flood-opacity="0" result="BackgroundImageFix"/>
<feColorMatrix in="SourceAlpha" type="matrix" values="0 0 0 0 0 0 0 0 0 0 0 0 0 0 0 0 0 0 127 0" result="hardAlpha"/>
<feMorphology radius="5" operator="dilate" in="SourceAlpha" result="effect1_dropShadow_1429_11757"/>
<feOffset/>
<feGaussianBlur stdDeviation="13.5"/>
<feComposite in2="hardAlpha" operator="out"/>
<feColorMatrix type="matrix" values="0 0 0 0 0.932823 0 0 0 0 0.922396 0 0 0 0 0.9625 0 0 0 0.25 0"/>
<feBlend mode="normal" in2="BackgroundImageFix" result="effect1_dropShadow_1429_11757"/>
<feBlend mode="normal" in="SourceGraphic" in2="effect1_dropShadow_1429_11757" result="shape"/>
</filter>
<filter id="filter2_d_1429_11757" x="58.8281" y="-36.1048" width="126.451" height="126.451" filterUnits="userSpaceOnUse" color-interpolation-filters="sRGB">
<feFlood flood-opacity="0" result="BackgroundImageFix"/>
<feColorMatrix in="SourceAlpha" type="matrix" values="0 0 0 0 0 0 0 0 0 0 0 0 0 0 0 0 0 0 127 0" result="hardAlpha"/>
<feOffset/>
<feGaussianBlur stdDeviation="4"/>
<feComposite in2="hardAlpha" operator="out"/>
<feColorMatrix type="matrix" values="0 0 0 0 0.879167 0 0 0 0 0.879167 0 0 0 0 0.879167 0 0 0 0.25 0"/>
<feBlend mode="normal" in2="BackgroundImageFix" result="effect1_dropShadow_1429_11757"/>
<feBlend mode="normal" in="SourceGraphic" in2="effect1_dropShadow_1429_11757" result="shape"/>
</filter>
<filter id="filter3_d_1429_11757" x="16" y="-79" width="212" height="212" filterUnits="userSpaceOnUse" color-interpolation-filters="sRGB">
<feFlood flood-opacity="0" result="BackgroundImageFix"/>
<feColorMatrix in="SourceAlpha" type="matrix" values="0 0 0 0 0 0 0 0 0 0 0 0 0 0 0 0 0 0 127 0" result="hardAlpha"/>
<feMorphology radius="5" operator="dilate" in="SourceAlpha" result="effect1_dropShadow_1429_11757"/>
<feOffset/>
<feGaussianBlur stdDeviation="13.5"/>
<feComposite in2="hardAlpha" operator="out"/>
<feColorMatrix type="matrix" values="0 0 0 0 0.853125 0 0 0 0 0.80625 0 0 0 0 0.9 0 0 0 0.25 0"/>
<feBlend mode="normal" in2="BackgroundImageFix" result="effect1_dropShadow_1429_11757"/>
<feBlend mode="normal" in="SourceGraphic" in2="effect1_dropShadow_1429_11757" result="shape"/>
</filter>
</defs>
</svg>
