<svg width="28" height="25" viewBox="0 0 28 25" fill="none" xmlns="http://www.w3.org/2000/svg">
<path d="M10.3781 2.23037C10.6616 1.46422 11.7453 1.46422 12.0288 2.23036L13.106 5.14156C13.819 7.06854 15.3383 8.58785 17.2653 9.3009L20.1765 10.3781C20.9427 10.6616 20.9427 11.7453 20.1765 12.0288L17.2653 13.106C15.3383 13.819 13.819 15.3383 13.106 17.2653L12.0288 20.1765C11.7453 20.9427 10.6616 20.9427 10.3781 20.1765L9.3009 17.2653C8.58785 15.3383 7.06854 13.819 5.14156 13.106L2.23037 12.0288C1.46422 11.7453 1.46422 10.6616 2.23036 10.3781L5.14156 9.3009C7.06854 8.58785 8.58785 7.06854 9.3009 5.14156L10.3781 2.23037Z" fill="url(#paint0_linear_12146_26051)"/>
<path d="M21.9859 14.559C22.1277 14.176 22.6695 14.176 22.8113 14.559L23.3499 16.0146C23.7064 16.9781 24.466 17.7378 25.4295 18.0943L26.8851 18.6329C27.2682 18.7747 27.2682 19.3165 26.8851 19.4582L25.4295 19.9968C24.466 20.3534 23.7064 21.113 23.3499 22.0765L22.8113 23.5321C22.6695 23.9152 22.1277 23.9152 21.9859 23.5321L21.4473 22.0765C21.0908 21.113 20.3311 20.3534 19.3677 19.9968L17.9121 19.4582C17.529 19.3165 17.529 18.7747 17.9121 18.6329L19.3677 18.0943C20.3311 17.7378 21.0908 16.9781 21.4473 16.0146L21.9859 14.559Z" fill="url(#paint1_linear_12146_26051)"/>
<defs>
<linearGradient id="paint0_linear_12146_26051" x1="-1.17382e-08" y1="11.2035" x2="22.4242" y2="11.1231" gradientUnits="userSpaceOnUse">
<stop stop-color="#0CFFF0"/>
<stop offset="1" stop-color="#0CFFA7"/>
</linearGradient>
<linearGradient id="paint1_linear_12146_26051" x1="16.7969" y1="19.0456" x2="28.009" y2="19.0054" gradientUnits="userSpaceOnUse">
<stop stop-color="#0CFFF0"/>
<stop offset="1" stop-color="#0CFFA7"/>
</linearGradient>
</defs>
</svg>
