<svg width="32" height="32" viewBox="0 0 32 32" fill="none" xmlns="http://www.w3.org/2000/svg">
<rect width="32" height="32" rx="4" fill="#3A99FB" fill-opacity="0.27"/>
<path d="M7.73553 10.7526C12.3003 6.28232 19.6997 6.28232 24.2704 10.7526L24.8196 11.29C25.0499 11.5144 25.0499 11.8746 24.8196 12.099L22.9417 13.9415C22.8295 14.0537 22.6405 14.0537 22.5283 13.9415L21.7724 13.2033C18.5895 10.0853 13.4223 10.0853 10.2394 13.2033L9.43035 13.9947C9.31815 14.1069 9.12918 14.1069 9.01698 13.9947L7.13319 12.1522C6.90288 11.9278 6.90288 11.5676 7.13319 11.3432L7.73553 10.7526ZM28.1561 14.5557L29.8273 16.1914C30.0576 16.4158 30.0576 16.776 29.8273 17.0005L22.2862 24.388C22.0559 24.6124 21.6898 24.6124 21.4595 24.388L16.1033 19.1441C16.0443 19.0909 15.9557 19.0909 15.8967 19.1441L10.5465 24.388C10.3161 24.6124 9.95002 24.6124 9.71971 24.388L2.17273 17.0064C1.94242 16.782 1.94242 16.4217 2.17273 16.1973L3.84393 14.5616C4.07424 14.3372 4.44037 14.3372 4.67067 14.5616L10.0268 19.8055C10.0858 19.8586 10.1744 19.8586 10.2335 19.8055L15.5837 14.5616C15.814 14.3372 16.1801 14.3372 16.4104 14.5616L21.7665 19.8055C21.8256 19.8586 21.9142 19.8586 21.9732 19.8055L27.3293 14.5616C27.5537 14.3313 27.9258 14.3313 28.1561 14.5557Z" fill="#3A99FB"/>
</svg>
