<svg width="150" height="40" viewBox="0 0 150 40" fill="none" xmlns="http://www.w3.org/2000/svg">
<path d="M47.9274 16.1136L54.6744 8.53142V6.07166H44.4028V8.73429H50.747L44 16.3164V18.7762H55.0772V16.1136H47.9274Z" fill="white"/>
<path d="M62.9606 11.7012L68.3985 6.07166H64.6222L59.9647 11.1687V1H57.0696V18.7508H59.9647V12.2337L65.9313 18.7508H69.7076L62.9606 11.7012Z" fill="white"/>
<path d="M85.2558 12.0562C84.425 9.79934 81.9075 9.49504 81.9075 9.49504C81.9075 9.49504 83.9718 8.81036 84.3746 6.95921C84.425 6.65491 84.4502 6.35061 84.4502 6.04631C84.4502 5.31092 84.2991 4.6516 83.9718 4.043C83.6697 3.40904 83.2166 2.87652 82.6124 2.44542C82.0585 2.03969 81.3788 1.71003 80.5983 1.48181C79.8682 1.27894 79.0375 1.17751 78.1563 1.17751H71.2834V18.903H78.5591C79.541 18.903 80.4473 18.8015 81.2781 18.5733C82.1089 18.3197 82.8641 17.9647 83.4683 17.5083C84.1229 17.0518 84.6264 16.4686 84.9789 15.7839C85.3061 15.1246 85.4824 14.3638 85.4824 13.5777C85.4824 13.0452 85.4068 12.538 85.2558 12.0562ZM78.1563 3.84013C78.7354 3.84013 79.2892 3.89085 79.7424 4.01764C80.1452 4.14443 80.4976 4.32194 80.7746 4.52481C81.0263 4.70232 81.2277 4.93054 81.3536 5.18412C81.4795 5.43771 81.555 5.71665 81.555 6.04631C81.555 6.37596 81.4795 6.65491 81.3536 6.90849C81.2277 7.16207 81.0263 7.3903 80.7997 7.56781C80.5228 7.77067 80.1452 7.92282 79.7424 8.04961C79.2892 8.17641 78.7354 8.25248 78.1563 8.25248H74.1786V3.84013H78.1563ZM82.3354 14.6428C82.1844 14.9471 81.9578 15.226 81.6557 15.4289C81.3284 15.6825 80.9004 15.8853 80.3969 16.0121C79.8682 16.1643 79.2389 16.2657 78.5591 16.2657H74.1786V10.9151H78.5591C79.2389 10.9151 79.8682 10.9912 80.3969 11.1433C80.9004 11.2955 81.3284 11.473 81.6557 11.7266C81.9578 11.9548 82.1844 12.2084 82.3354 12.538C82.5117 12.8423 82.5872 13.1974 82.5872 13.5777C82.5872 13.9835 82.5117 14.3385 82.3354 14.6428Z" fill="white"/>
<path d="M95.4101 5.76737C94.9821 5.71665 94.5542 5.69129 94.1513 5.69129C93.3206 5.74201 92.4646 5.97023 91.7597 6.40132C91.2058 6.70562 90.7778 7.13671 90.4506 7.59316V6.07166H87.5554V18.7508H90.4506V12.3352C90.4506 12.183 90.4757 12.0055 90.5009 11.8534C90.5261 11.2955 90.652 10.763 90.8534 10.2811C91.0799 9.79934 91.3821 9.34289 91.7345 9.03859C92.1121 8.70893 92.5149 8.53142 92.9178 8.42999C93.3206 8.32856 93.6982 8.3032 94.1513 8.35391C94.5793 8.37927 94.9318 8.48071 95.2339 8.65821C95.3346 8.70893 95.4101 8.75965 95.5108 8.81036L96.1654 5.97023C95.9136 5.89416 95.6619 5.81808 95.4101 5.76737Z" fill="white"/>
<path d="M100.604 18.7508V6.07166H97.684V18.7508H100.604ZM99.1441 4.72767C100.176 4.72767 100.982 3.89085 100.982 2.87652C100.982 1.83682 100.176 1 99.1441 1C98.1119 1 97.3063 1.83682 97.3063 2.87652C97.3063 3.89085 98.1119 4.72767 99.1441 4.72767Z" fill="white"/>
<path d="M114.394 1V7.82139C113.84 7.26351 113.161 6.75634 112.405 6.40132C111.574 6.02095 110.643 5.81808 109.686 5.79272C108.755 5.79272 107.798 5.94487 106.917 6.27453C106.036 6.62955 105.255 7.13671 104.601 7.74531C103.317 8.98787 102.587 10.7122 102.612 12.4112C102.587 14.1103 103.317 15.8346 104.601 17.0772C105.255 17.7111 106.036 18.2183 106.917 18.548C107.798 18.903 108.755 19.0551 109.686 19.0298C110.643 19.0044 111.574 18.8015 112.405 18.4212C113.161 18.0662 113.84 17.5843 114.394 17.0011V18.7508H117.289V1H114.394ZM112.858 15.4035C112.405 15.7585 111.877 16.0121 111.348 16.1643C110.794 16.3164 110.24 16.3925 109.686 16.3671C108.579 16.3164 107.521 15.9107 106.741 15.1753C105.96 14.4653 105.507 13.4509 105.507 12.4112C105.507 11.3716 105.96 10.3572 106.741 9.64719C107.521 8.9118 108.579 8.50606 109.686 8.45535C110.24 8.42999 110.794 8.50606 111.348 8.65821C111.877 8.81036 112.405 9.08931 112.858 9.44432C113.79 10.129 114.394 11.2448 114.394 12.4112C114.394 13.5777 113.79 14.6935 112.858 15.4035Z" fill="white"/>
<path d="M130.86 6.07166V7.74531C130.331 7.21279 129.702 6.73098 128.946 6.40132C128.141 6.02095 127.209 5.81808 126.303 5.79272C125.372 5.79272 124.44 5.94487 123.584 6.27453C122.728 6.60419 121.948 7.11136 121.318 7.71996C120.034 8.93716 119.329 10.6108 119.355 12.2845C119.329 13.9581 120.034 15.6318 121.318 16.8743C121.948 17.4829 122.728 17.9647 123.584 18.3197C124.44 18.6494 125.372 18.8015 126.303 18.7762C127.235 18.7508 128.141 18.548 128.946 18.1676C129.702 17.8379 130.331 17.3815 130.86 16.8236V17.1279C130.86 19.5116 129.752 20.9063 127.511 21.2613C125.346 21.6417 122.98 20.7034 121.948 19.0551L119.43 20.3991C120.865 22.6307 123.66 24 126.555 24C127.033 24 127.537 23.9746 128.04 23.8986C131.691 23.29 133.78 20.8049 133.78 17.1279V6.07166H130.86ZM129.374 15.1753C128.946 15.5303 128.418 15.7585 127.889 15.9107C127.386 16.0628 126.832 16.1389 126.303 16.1136C125.221 16.0628 124.214 15.6825 123.458 14.9724C122.703 14.2624 122.25 13.2988 122.25 12.2845C122.25 11.2701 122.678 10.3065 123.458 9.59647C124.214 8.88644 125.221 8.50606 126.303 8.45535C126.832 8.42999 127.386 8.50606 127.889 8.65821C128.418 8.81036 128.946 9.03859 129.374 9.3936C130.281 10.0783 130.86 11.1687 130.86 12.2845C130.86 13.4256 130.281 14.4906 129.374 15.1753Z" fill="white"/>
<path d="M149.396 13.5017H149.899C149.975 13.1466 150 12.7916 150 12.4112C150 8.75965 146.828 5.79272 142.901 5.79272C138.998 5.79272 135.826 8.75965 135.826 12.4112C135.826 16.0628 139.225 19.0298 143.379 19.0298C145.972 19.0298 148.313 17.8886 149.698 16.0628L147.004 14.9217C146.148 15.8093 144.814 16.3671 143.379 16.3671C141.264 16.3671 139.477 15.1499 138.898 13.5017H149.396ZM138.898 11.3208C139.401 9.67255 141.012 8.45535 142.901 8.45535C144.814 8.45535 146.425 9.67255 146.929 11.3208H138.898Z" fill="white"/>
<path fill-rule="evenodd" clip-rule="evenodd" d="M17.6545 0.192843L17.3205 0L16.9865 0.192843L0.334011 9.80716L0 10V10.3857V29.6143V30L0.334011 30.1928L16.9865 39.8071L17.3205 40L17.6545 39.8071L34.307 30.1928L34.641 30V29.6143V10.3857V10L34.307 9.80716L17.6545 0.192843ZM1.33604 27.5502V10.7714L17.3205 1.54273L33.305 10.7714V27.5503L17.8414 8.28502L17.3205 7.63598L16.7995 8.28502L1.33604 27.5502ZM2.00328 29.6139L16.6555 38.0733V25.7456C11.6081 25.8497 6.57967 27.1391 2.00328 29.6139ZM2.9987 27.6132L16.6555 10.5988L16.6555 24.4093C11.9826 24.5018 7.32478 25.5698 2.9987 27.6132ZM17.9916 25.7457V38.0698L32.6377 29.6139C28.0632 27.1401 23.037 25.8507 17.9916 25.7457ZM31.6423 27.6132C27.3181 25.5707 22.6624 24.5027 17.9916 24.4094L17.9916 10.6065L31.6423 27.6132Z" fill="url(#paint0_linear_8368_14788)"/>
<path d="M44 36.9442H45.1068V30.8678L47.9164 36.9442H48.6948L51.4923 30.8795V36.9442H52.5991V28.811H51.4193L48.3056 35.5338L45.192 28.811H44V36.9442Z" fill="url(#paint1_linear_8368_14788)"/>
<path d="M54.0626 33.7003C54.0626 35.6983 55.437 37.05 57.2128 37.05C58.4412 37.05 59.3048 36.4388 59.7062 35.7453V36.9442H60.8252V30.5034H59.7062V31.6787C59.317 31.0088 58.4656 30.3976 57.225 30.3976C55.437 30.3976 54.0626 31.6905 54.0626 33.7003ZM59.7062 33.712C59.7062 35.2282 58.6602 36.1097 57.4439 36.1097C56.2276 36.1097 55.1938 35.2165 55.1938 33.7003C55.1938 32.1841 56.2276 31.3262 57.4439 31.3262C58.6602 31.3262 59.7062 32.2194 59.7062 33.712Z" fill="url(#paint2_linear_8368_14788)"/>
<path d="M62.6956 36.9442H63.8024V30.5034H62.6956V36.9442ZM63.2672 29.4574C63.6686 29.4574 63.997 29.1401 63.997 28.7287C63.997 28.3173 63.6686 28 63.2672 28C62.8415 28 62.5131 28.3173 62.5131 28.7287C62.5131 29.1401 62.8415 29.4574 63.2672 29.4574Z" fill="url(#paint3_linear_8368_14788)"/>
<path d="M70.566 36.9442H71.6607V33.1479C71.6607 31.3026 70.4809 30.3859 68.9362 30.3859C68.0362 30.3859 67.2334 30.7502 66.7956 31.4202V30.5034H65.6888V36.9442H66.7956V33.383C66.7956 31.9961 67.574 31.3144 68.7051 31.3144C69.8241 31.3144 70.566 31.9843 70.566 33.3007V36.9442Z" fill="url(#paint4_linear_8368_14788)"/>
<path d="M78.346 36.9442H79.4406V33.1479C79.4406 31.3026 78.2608 30.3859 76.7161 30.3859C75.8161 30.3859 75.0133 30.7502 74.5755 31.4202V30.5034H73.4687V36.9442H74.5755V33.383C74.5755 31.9961 75.3539 31.3144 76.4851 31.3144C77.604 31.3144 78.346 31.9843 78.346 33.3007V36.9442Z" fill="url(#paint5_linear_8368_14788)"/>
<path d="M84.0825 31.3026C85.2258 31.3026 86.1989 31.9961 86.1867 33.2537H81.9784C82.1 31.9961 83 31.3026 84.0825 31.3026ZM87.1962 34.9579H86.0043C85.761 35.6513 85.1285 36.145 84.1312 36.145C83 36.145 82.0513 35.428 81.9662 34.1234H87.2935C87.3178 33.9001 87.33 33.712 87.33 33.477C87.33 31.714 86.0651 30.3976 84.1312 30.3976C82.1851 30.3976 80.8351 31.6787 80.8351 33.712C80.8351 35.7571 82.2338 37.05 84.1312 37.05C85.7853 37.05 86.8556 36.1332 87.1962 34.9579Z" fill="url(#paint6_linear_8368_14788)"/>
<path d="M89.0342 35.1812C89.0342 36.474 89.7032 36.9442 90.883 36.9442H91.8803V36.0392H91.0654C90.3843 36.0392 90.141 35.8159 90.141 35.1812V31.3849H91.8803V30.5034H90.141V28.8815H89.0342V30.5034H88.1707V31.3849H89.0342V35.1812Z" fill="url(#paint7_linear_8368_14788)"/>
<path d="M103.155 36.9442H104.323L101.27 28.7992H99.9927L96.9277 36.9442H98.0953L98.7764 35.1224H102.474L103.155 36.9442ZM102.158 34.2527H99.0927L100.625 30.1156L102.158 34.2527Z" fill="url(#paint8_linear_8368_14788)"/>
<path d="M105.659 36.9442H106.765V28.2468H105.659V36.9442Z" fill="url(#paint9_linear_8368_14788)"/>
<path d="M109.759 31.6905V30.5034H108.652V40H109.759V35.7571C110.172 36.4153 111.036 37.05 112.252 37.05C114.04 37.05 115.414 35.6983 115.414 33.7003C115.414 31.6905 114.04 30.3976 112.252 30.3976C111.036 30.3976 110.16 31.0088 109.759 31.6905ZM114.283 33.7003C114.283 35.2165 113.249 36.1097 112.021 36.1097C110.817 36.1097 109.759 35.2282 109.759 33.712C109.759 32.2194 110.817 31.3261 112.021 31.3261C113.249 31.3261 114.283 32.1841 114.283 33.7003Z" fill="url(#paint10_linear_8368_14788)"/>
<path d="M116.871 36.9442H117.978V33.383C117.978 31.9961 118.756 31.3144 119.887 31.3144C121.006 31.3144 121.748 31.9843 121.748 33.3007V36.9442H122.843V33.1479C122.843 31.3026 121.663 30.3859 120.179 30.3859C119.243 30.3859 118.416 30.7502 117.978 31.4319V28.2468H116.871V36.9442Z" fill="url(#paint11_linear_8368_14788)"/>
<path d="M124.237 33.7003C124.237 35.6983 125.612 37.05 127.388 37.05C128.616 37.05 129.48 36.4388 129.881 35.7453V36.9442H131V30.5034H129.881V31.6787C129.492 31.0088 128.64 30.3976 127.4 30.3976C125.612 30.3976 124.237 31.6905 124.237 33.7003ZM129.881 33.712C129.881 35.2282 128.835 36.1097 127.619 36.1097C126.402 36.1097 125.369 35.2165 125.369 33.7003C125.369 32.1841 126.402 31.3261 127.619 31.3261C128.835 31.3261 129.881 32.2194 129.881 33.712Z" fill="url(#paint12_linear_8368_14788)"/>
<defs>
<linearGradient id="paint0_linear_8368_14788" x1="0.0256098" y1="30.3838" x2="18.4694" y2="0.605146" gradientUnits="userSpaceOnUse">
<stop stop-color="#0CFFF0"/>
<stop offset="1" stop-color="#0CFFA7"/>
</linearGradient>
<linearGradient id="paint1_linear_8368_14788" x1="44" y1="34" x2="131.009" y2="31.7392" gradientUnits="userSpaceOnUse">
<stop stop-color="#0CFFF0"/>
<stop offset="1" stop-color="#0CFFA7"/>
</linearGradient>
<linearGradient id="paint2_linear_8368_14788" x1="44" y1="34" x2="131.009" y2="31.7392" gradientUnits="userSpaceOnUse">
<stop stop-color="#0CFFF0"/>
<stop offset="1" stop-color="#0CFFA7"/>
</linearGradient>
<linearGradient id="paint3_linear_8368_14788" x1="44" y1="34" x2="131.009" y2="31.7392" gradientUnits="userSpaceOnUse">
<stop stop-color="#0CFFF0"/>
<stop offset="1" stop-color="#0CFFA7"/>
</linearGradient>
<linearGradient id="paint4_linear_8368_14788" x1="44" y1="34" x2="131.009" y2="31.7392" gradientUnits="userSpaceOnUse">
<stop stop-color="#0CFFF0"/>
<stop offset="1" stop-color="#0CFFA7"/>
</linearGradient>
<linearGradient id="paint5_linear_8368_14788" x1="44" y1="34" x2="131.009" y2="31.7392" gradientUnits="userSpaceOnUse">
<stop stop-color="#0CFFF0"/>
<stop offset="1" stop-color="#0CFFA7"/>
</linearGradient>
<linearGradient id="paint6_linear_8368_14788" x1="44" y1="34" x2="131.009" y2="31.7392" gradientUnits="userSpaceOnUse">
<stop stop-color="#0CFFF0"/>
<stop offset="1" stop-color="#0CFFA7"/>
</linearGradient>
<linearGradient id="paint7_linear_8368_14788" x1="44" y1="34" x2="131.009" y2="31.7392" gradientUnits="userSpaceOnUse">
<stop stop-color="#0CFFF0"/>
<stop offset="1" stop-color="#0CFFA7"/>
</linearGradient>
<linearGradient id="paint8_linear_8368_14788" x1="44" y1="34" x2="131.009" y2="31.7392" gradientUnits="userSpaceOnUse">
<stop stop-color="#0CFFF0"/>
<stop offset="1" stop-color="#0CFFA7"/>
</linearGradient>
<linearGradient id="paint9_linear_8368_14788" x1="44" y1="34" x2="131.009" y2="31.7392" gradientUnits="userSpaceOnUse">
<stop stop-color="#0CFFF0"/>
<stop offset="1" stop-color="#0CFFA7"/>
</linearGradient>
<linearGradient id="paint10_linear_8368_14788" x1="44" y1="34" x2="131.009" y2="31.7392" gradientUnits="userSpaceOnUse">
<stop stop-color="#0CFFF0"/>
<stop offset="1" stop-color="#0CFFA7"/>
</linearGradient>
<linearGradient id="paint11_linear_8368_14788" x1="44" y1="34" x2="131.009" y2="31.7392" gradientUnits="userSpaceOnUse">
<stop stop-color="#0CFFF0"/>
<stop offset="1" stop-color="#0CFFA7"/>
</linearGradient>
<linearGradient id="paint12_linear_8368_14788" x1="44" y1="34" x2="131.009" y2="31.7392" gradientUnits="userSpaceOnUse">
<stop stop-color="#0CFFF0"/>
<stop offset="1" stop-color="#0CFFA7"/>
</linearGradient>
</defs>
</svg>
